<?xml version="1.0" standalone="no"?>
<!DOCTYPE svg PUBLIC "-//W3C//DTD SVG 20010904//EN"
 "http://www.w3.org/TR/2001/REC-SVG-20010904/DTD/svg10.dtd">
<svg version="1.0" xmlns="http://www.w3.org/2000/svg"
 width="192.000000pt" height="192.000000pt" viewBox="0 0 192.000000 192.000000"
 preserveAspectRatio="xMidYMid meet">
<metadata>
Created by potrace 1.14, written by Peter Selinger 2001-2017
</metadata>
<g transform="translate(0.000000,192.000000) scale(0.100000,-0.100000)"
fill="#000000" stroke="none">
<path d="M100 1045 l0 -625 70 0 70 0 0 -80 0 -80 790 0 790 0 -2 628 -3 627
-82 3 -83 3 0 74 0 75 -775 0 -775 0 0 -625z m1560 -155 l0 -470 -155 0 -155
0 0 390 0 390 -80 0 -80 0 0 -390 0 -390 -160 0 -160 0 0 390 0 390 -75 0 -75
0 0 -390 0 -390 -160 0 -160 0 0 470 0 470 630 0 630 0 0 -470z"/>
</g>
</svg>
